<svg xmlns="http://www.w3.org/2000/svg" xmlns:xlink="http://www.w3.org/1999/xlink" viewBox="0 0 48 48"><defs><linearGradient id="linear-gradient" x1="4" y1="80" x2="44" y2="80" gradientTransform="translate(-56 48) rotate(-90)" gradientUnits="userSpaceOnUse"><stop offset="0" stop-color="#fff" stop-opacity="0"/><stop offset="1" stop-color="#f0f0f0"/></linearGradient></defs><title>_</title><g id="Button"><circle cx="24" cy="24" r="23.5" style="fill:#fff"/><path d="M24,1A23,23,0,1,1,1,24,23,23,0,0,1,24,1m0-1A24,24,0,1,0,48,24,23.9,23.9,0,0,0,24,0Z" style="fill:#a22855"/><circle cx="24" cy="24" r="20" style="fill:url(#linear-gradient)"/></g><g id="Login"><path d="M24.1,9A14.9,14.9,0,0,0,9.3,22l15.2.9-1.4-3.5a1.1,1.1,0,0,1,.4-1.3,1.3,1.3,0,0,1,1.3.2l4.3,5a1,1,0,0,1,0,1.4l-4.3,5a1.1,1.1,0,0,1-.8.3h-.5a1.1,1.1,0,0,1-.4-1.3l1.4-3.5L9.3,26A15,15,0,1,0,24.1,9Z" style="fill:#a22855"/></g></svg>