<svg xmlns="http://www.w3.org/2000/svg" xmlns:xlink="http://www.w3.org/1999/xlink" viewBox="0 0 48 48"><defs><linearGradient id="linear-gradient" x1="60" y1="24" x2="100" y2="24" gradientTransform="translate(0 104) rotate(-90)" gradientUnits="userSpaceOnUse"><stop offset="0" stop-color="#fff" stop-opacity="0"/><stop offset="1" stop-color="#f0f0f0"/></linearGradient></defs><title>_</title><g id="Button"><circle cx="24" cy="24" r="23.5" style="fill:#fff"/><path d="M24,1A23,23,0,1,1,1,24,23,23,0,0,1,24,1m0-1A24,24,0,1,0,48,24,23.9,23.9,0,0,0,24,0Z" style="fill:#a22855"/><circle cx="24" cy="24" r="20" style="fill:url(#linear-gradient)"/></g><g id="Password"><path d="M35,24H17V20a7,7,0,0,1,14,0,2,2,0,0,0,4,0,11,11,0,0,0-22,0v4a1.6,1.6,0,0,0-1.6,2l2.2,11A2.6,2.6,0,0,0,16,39H32a2.6,2.6,0,0,0,2.4-2l2.2-11A1.6,1.6,0,0,0,35,24Z" style="fill:#a22855"/></g></svg>