<svg xmlns="http://www.w3.org/2000/svg" xmlns:xlink="http://www.w3.org/1999/xlink" viewBox="0 0 48 48"><defs><linearGradient id="linear-gradient" x1="-276" y1="360" x2="-236" y2="360" gradientTransform="translate(-336 -232) rotate(-90)" gradientUnits="userSpaceOnUse"><stop offset="0" stop-color="#fff" stop-opacity="0"/><stop offset="1" stop-color="#f0f0f0"/></linearGradient></defs><title>_</title><g id="Button"><circle cx="24" cy="24" r="23.5" style="fill:#fff"/><path d="M24,1A23,23,0,1,1,1,24,23,23,0,0,1,24,1m0-1A24,24,0,1,0,48,24,23.9,23.9,0,0,0,24,0Z" style="fill:#a22855"/><circle cx="24" cy="24" r="20" style="fill:url(#linear-gradient)"/></g><g id="Sembunyikan"><path d="M38.9,25.1A17.7,17.7,0,0,1,24,33l-3-.2,9.9-10A4.9,4.9,0,0,1,31,24a6.7,6.7,0,0,1-1.1,3.7A12.8,12.8,0,0,0,34.8,24a19.5,19.5,0,0,0-2.6-2.4L35,18.7a19.5,19.5,0,0,1,3.9,4.2A2.2,2.2,0,0,1,38.9,25.1Z" style="fill:#a22855"/><path d="M35.8,13.7a2.4,2.4,0,0,0-.6-.9,1.9,1.9,0,0,0-2.8,0l-3,3A19.1,19.1,0,0,0,24,15,17.7,17.7,0,0,0,9.1,22.9a2.2,2.2,0,0,0,0,2.2,17.3,17.3,0,0,0,5.7,5.4l-1.5,1.4a2.1,2.1,0,0,0,0,2.9l.9.5h.6a2.4,2.4,0,0,0,1.4-.5l2.5-2.6L30.2,20.7l.2-.2,2.9-2.9,1.9-1.9A2.2,2.2,0,0,0,35.8,13.7ZM13.2,24a12.8,12.8,0,0,1,4.9-3.7,6.8,6.8,0,0,0-.2,7.1h-.2A13.7,13.7,0,0,1,13.2,24Z" style="fill:#a22855"/></g></svg>