<svg xmlns="http://www.w3.org/2000/svg" xmlns:xlink="http://www.w3.org/1999/xlink" viewBox="0 0 48 48"><defs><linearGradient id="linear-gradient" x1="-220" y1="304" x2="-180" y2="304" gradientTransform="translate(-280 -176) rotate(-90)" gradientUnits="userSpaceOnUse"><stop offset="0" stop-color="#fff" stop-opacity="0"/><stop offset="1" stop-color="#f0f0f0"/></linearGradient></defs><title>_</title><g id="Button"><circle cx="24" cy="24" r="23.5" style="fill:#fff"/><path d="M24,1A23,23,0,1,1,1,24,23,23,0,0,1,24,1m0-1A24,24,0,1,0,48,24,23.9,23.9,0,0,0,24,0Z" style="fill:#a22855"/><circle cx="24" cy="24" r="20" style="fill:url(#linear-gradient)"/></g><g id="Tampilkan"><path d="M38.9,22.9A17.7,17.7,0,0,0,24,15,17.7,17.7,0,0,0,9.1,22.9a2.2,2.2,0,0,0,0,2.2A17.7,17.7,0,0,0,24,33a17.7,17.7,0,0,0,14.9-7.9A2.2,2.2,0,0,0,38.9,22.9ZM13.3,24a11.7,11.7,0,0,1,4.8-3.7,6.8,6.8,0,0,0,0,7.4A11.7,11.7,0,0,1,13.3,24Zm16.6,3.7a6.8,6.8,0,0,0,0-7.4A11.7,11.7,0,0,1,34.7,24,11.7,11.7,0,0,1,29.9,27.7Z" style="fill:#a22855"/></g></svg>