<svg xmlns="http://www.w3.org/2000/svg" xmlns:xlink="http://www.w3.org/1999/xlink" viewBox="0 0 48 48"><defs><linearGradient id="linear-gradient" x1="116" y1="-32" x2="156" y2="-32" gradientTransform="translate(56 160) rotate(-90)" gradientUnits="userSpaceOnUse"><stop offset="0" stop-color="#fff" stop-opacity="0"/><stop offset="1" stop-color="#f0f0f0"/></linearGradient></defs><title>_</title><g id="Button"><circle cx="24" cy="24" r="23.5" style="fill:#fff"/><path d="M24,1A23,23,0,1,1,1,24,23,23,0,0,1,24,1m0-1A24,24,0,1,0,48,24,23.9,23.9,0,0,0,24,0Z" style="fill:#a22855"/><circle cx="24" cy="24" r="20" style="fill:url(#linear-gradient)"/></g><g id="Username"><path d="M34.1,23.6A2.1,2.1,0,0,1,35.6,26L33.4,37A2.6,2.6,0,0,1,31,39H17a2.6,2.6,0,0,1-2.4-2L12.4,26a2.1,2.1,0,0,1,1.5-2.4l2.2-.5a5.3,5.3,0,0,1,3.7.6A8.8,8.8,0,0,0,24,24.9a8.8,8.8,0,0,0,4.2-1.2,5.3,5.3,0,0,1,3.7-.6Z" style="fill:#a22855"/><path d="M31,15.9A7.1,7.1,0,0,1,27.5,22a7.9,7.9,0,0,1-3.5.9,7.9,7.9,0,0,1-3.5-.9A7.1,7.1,0,0,1,17,15.9a7,7,0,1,1,14,0Z" style="fill:#a22855"/></g></svg>