<?xml version="1.0" encoding="utf-8"?>
<!-- Generator: Adobe Illustrator 16.0.0, SVG Export Plug-In . SVG Version: 6.00 Build 0)  -->
<!DOCTYPE svg PUBLIC "-//W3C//DTD SVG 1.1//EN" "http://www.w3.org/Graphics/SVG/1.1/DTD/svg11.dtd">
<svg version="1.1" xmlns="http://www.w3.org/2000/svg" xmlns:xlink="http://www.w3.org/1999/xlink" x="0px" y="0px" width="48px"
	 height="48px" viewBox="0 0 48 48" enable-background="new 0 0 48 48" xml:space="preserve">
<g id="Guide" display="none">
</g>
<g id="BG" display="none">
	<rect display="inline" fill="#FFFFFF" width="48" height="48"/>
</g>
<g id="Button">
	<g>
		<g>
			<path fill="#FFFFFF" d="M24,47.5C11.042,47.5,0.5,36.958,0.5,24S11.042,0.5,24,0.5S47.5,11.042,47.5,24S36.958,47.5,24,47.5z"/>
			<path fill="#797979" d="M24,1c12.682,0,23,10.318,23,23S36.682,47,24,47S1,36.682,1,24S11.318,1,24,1 M24,0
				C10.745,0,0,10.745,0,24s10.745,24,24,24s24-10.745,24-24S37.255,0,24,0L24,0z"/>
		</g>
		
			<linearGradient id="SVGID_1_" gradientUnits="userSpaceOnUse" x1="4" y1="79.999" x2="44" y2="79.999" gradientTransform="matrix(0 -1 1 0 -55.9995 48)">
			<stop  offset="0" style="stop-color:#FFFFFF;stop-opacity:0"/>
			<stop  offset="1" style="stop-color:#F0F0F0"/>
		</linearGradient>
		<circle fill="url(#SVGID_1_)" cx="24" cy="24" r="20"/>
	</g>
</g>
<g id="Username">
</g>
<g id="Password">
</g>
<g id="Login">
	<g display="none">
		<ellipse display="inline" cx="24.125" cy="24" rx="15" ry="15.024"/>
		<g display="inline">
			
				<polygon fill="none" stroke="#FFFFFF" stroke-width="2" stroke-linecap="round" stroke-linejoin="round" stroke-miterlimit="10" points="
				26,24 9,23 9,25 			"/>
			
				<polygon fill="none" stroke="#FFFFFF" stroke-width="2" stroke-linecap="round" stroke-linejoin="round" stroke-miterlimit="10" points="
				24,29 26,24 24,19 28.375,24 			"/>
		</g>
	</g>
	<path fill="#797979" d="M24.125,8.976c-7.611,0-13.882,5.682-14.854,13.039l15.215,0.895l-1.415-3.538
		c-0.181-0.453-0.009-0.97,0.406-1.224c0.416-0.256,0.954-0.174,1.275,0.194l4.375,5c0.33,0.377,0.33,0.94,0,1.317l-4.375,5
		C24.557,29.882,24.28,30,24,30c-0.179,0-0.36-0.048-0.522-0.147c-0.416-0.254-0.587-0.771-0.406-1.224l1.415-3.538L9.271,25.985
		c0.972,7.356,7.243,13.039,14.854,13.039c8.285,0,15-6.727,15-15.024S32.41,8.976,24.125,8.976z"/>
</g>
<g id="Copy_Link">
</g>
<g id="Bagikan">
</g>
<g id="Buat_Akun">
</g>
<g id="Tampilkan">
</g>
<g id="Sembunyikan">
</g>
<g id="Informasi">
</g>
<g id="Pencarian">
</g>
<g id="Download">
</g>
<g id="Next">
</g>
<g id="Close">
</g>
<g id="Twitter">
</g>
<g id="Facebook">
</g>
<g id="Instagram">
</g>
<g id="Telefon">
</g>
<g id="Alamat">
</g>
<g id="Bidang">
</g>
<g id="Menu">
</g>
</svg>
