<?xml version="1.0" encoding="utf-8"?>
<!-- Generator: Adobe Illustrator 16.0.0, SVG Export Plug-In . SVG Version: 6.00 Build 0)  -->
<!DOCTYPE svg PUBLIC "-//W3C//DTD SVG 1.1//EN" "http://www.w3.org/Graphics/SVG/1.1/DTD/svg11.dtd">
<svg version="1.1" xmlns="http://www.w3.org/2000/svg" xmlns:xlink="http://www.w3.org/1999/xlink" x="0px" y="0px" width="48px"
	 height="48px" viewBox="0 0 48 48" enable-background="new 0 0 48 48" xml:space="preserve">
<g id="Guide" display="none">
</g>
<g id="BG" display="none">
	<rect display="inline" fill="#FFFFFF" width="48" height="48"/>
</g>
<g id="Button">
	<g>
		<g>
			<path fill="#FFFFFF" d="M24,47.5C11.042,47.5,0.5,36.958,0.5,24S11.042,0.5,24,0.5S47.5,11.042,47.5,24S36.958,47.5,24,47.5z"/>
			<path fill="#797979" d="M24,1c12.682,0,23,10.318,23,23S36.682,47,24,47S1,36.682,1,24S11.318,1,24,1 M24,0
				C10.745,0,0,10.745,0,24s10.745,24,24,24s24-10.745,24-24S37.255,0,24,0L24,0z"/>
		</g>
		
			<linearGradient id="SVGID_1_" gradientUnits="userSpaceOnUse" x1="60" y1="23.9995" x2="100" y2="23.9995" gradientTransform="matrix(0 -1 1 0 4.882813e-004 104)">
			<stop  offset="0" style="stop-color:#FFFFFF;stop-opacity:0"/>
			<stop  offset="1" style="stop-color:#F0F0F0"/>
		</linearGradient>
		<circle fill="url(#SVGID_1_)" cx="24" cy="24" r="20"/>
	</g>
</g>
<g id="Username">
</g>
<g id="Password">
	<circle display="none" fill="none" stroke="#000000" stroke-width="4" stroke-miterlimit="10" cx="24" cy="20.25" r="9.5"/>
	<g display="none">
		<g display="inline">
			<path d="M34.392,37.039C34.176,38.118,33.1,39,32,39H16c-1.1,0-2.176-0.882-2.392-1.961l-2.216-11.078
				C11.176,24.882,11.9,24,13,24h22c1.1,0,1.824,0.882,1.608,1.961L34.392,37.039z"/>
		</g>
		<path display="inline" fill="none" stroke="#000000" stroke-width="4" stroke-linecap="round" stroke-miterlimit="10" d="M33,20
			L33,20c0-4.971-4.029-9-9-9s-9,4.029-9,9v6"/>
	</g>
	<path fill="#797979" d="M35,24H17v-4c0-3.86,3.14-7,7-7s7,3.14,7,7c0,1.104,0.896,2,2,2s2-0.896,2-2c0-6.065-4.935-11-11-11
		s-11,4.935-11,11v4c-1.1,0-1.824,0.882-1.608,1.961l2.216,11.078C13.824,38.118,14.9,39,16,39h16c1.1,0,2.176-0.882,2.392-1.961
		l2.216-11.078C36.824,24.882,36.1,24,35,24z"/>
</g>
<g id="Login">
</g>
<g id="Copy_Link">
</g>
<g id="Bagikan">
</g>
<g id="Buat_Akun">
</g>
<g id="Tampilkan">
</g>
<g id="Sembunyikan">
</g>
<g id="Informasi">
</g>
<g id="Pencarian">
</g>
<g id="Download">
</g>
<g id="Next">
</g>
<g id="Close">
</g>
<g id="Twitter">
</g>
<g id="Facebook">
</g>
<g id="Instagram">
</g>
<g id="Telefon">
</g>
<g id="Alamat">
</g>
<g id="Bidang">
</g>
<g id="Menu">
</g>
</svg>
