<?xml version="1.0" encoding="utf-8"?>
<!-- Generator: Adobe Illustrator 16.0.0, SVG Export Plug-In . SVG Version: 6.00 Build 0)  -->
<!DOCTYPE svg PUBLIC "-//W3C//DTD SVG 1.1//EN" "http://www.w3.org/Graphics/SVG/1.1/DTD/svg11.dtd">
<svg version="1.1" xmlns="http://www.w3.org/2000/svg" xmlns:xlink="http://www.w3.org/1999/xlink" x="0px" y="0px" width="48px"
	 height="48px" viewBox="0 0 48 48" enable-background="new 0 0 48 48" xml:space="preserve">
<g id="Guide" display="none">
</g>
<g id="BG" display="none">
	<rect display="inline" fill="#FFFFFF" width="48" height="48"/>
</g>
<g id="Button">
	<g>
		<g>
			<path fill="#FFFFFF" d="M24,47.5C11.042,47.5,0.5,36.958,0.5,24S11.042,0.5,24,0.5S47.5,11.042,47.5,24S36.958,47.5,24,47.5z"/>
			<path fill="#797979" d="M24,1c12.682,0,23,10.318,23,23S36.682,47,24,47S1,36.682,1,24S11.318,1,24,1 M24,0
				C10.745,0,0,10.745,0,24s10.745,24,24,24s24-10.745,24-24S37.255,0,24,0L24,0z"/>
		</g>
		
			<linearGradient id="SVGID_1_" gradientUnits="userSpaceOnUse" x1="116" y1="-32.0005" x2="156" y2="-32.0005" gradientTransform="matrix(0 -1 1 0 56.0005 160)">
			<stop  offset="0" style="stop-color:#FFFFFF;stop-opacity:0"/>
			<stop  offset="1" style="stop-color:#F0F0F0"/>
		</linearGradient>
		<circle fill="url(#SVGID_1_)" cx="24" cy="24" r="20"/>
	</g>
</g>
<g id="Username">
	<g>
		<path fill="#797979" d="M34.05,23.555c1.072,0.245,1.773,1.327,1.558,2.406l-2.216,11.078C33.176,38.118,32.1,39,31,39H17
			c-1.1,0-2.176-0.882-2.392-1.961l-2.216-11.078c-0.216-1.079,0.485-2.161,1.558-2.406l2.15-0.49
			c1.072-0.245,2.716,0.027,3.653,0.604c0,0,1.967,1.211,4.247,1.211s4.247-1.211,4.247-1.211c0.937-0.577,2.581-0.848,3.653-0.604
			L34.05,23.555z"/>
	</g>
	<path fill="#797979" d="M31,15.88c0,2.59-1.41,4.86-3.51,6.07c-1.02,0.59-2.21,0.93-3.49,0.93s-2.47-0.34-3.49-0.93
		c-2.1-1.21-3.51-3.48-3.51-6.07c0-3.87,3.13-7,7-7S31,12.01,31,15.88z"/>
</g>
<g id="Password">
</g>
<g id="Login">
</g>
<g id="Copy_Link">
</g>
<g id="Bagikan">
</g>
<g id="Buat_Akun">
</g>
<g id="Tampilkan">
</g>
<g id="Sembunyikan">
</g>
<g id="Informasi">
</g>
<g id="Pencarian">
</g>
<g id="Download">
</g>
<g id="Next">
</g>
<g id="Close">
</g>
<g id="Twitter">
</g>
<g id="Facebook">
</g>
<g id="Instagram">
</g>
<g id="Telefon">
</g>
<g id="Alamat">
</g>
<g id="Bidang">
</g>
<g id="Menu">
</g>
</svg>
