<?xml version="1.0" encoding="utf-8"?>
<!-- Generator: Adobe Illustrator 23.1.1, SVG Export Plug-In . SVG Version: 6.00 Build 0)  -->
<svg version="1.1" id="Layer_1" xmlns="http://www.w3.org/2000/svg" xmlns:xlink="http://www.w3.org/1999/xlink" x="0px" y="0px"
	 viewBox="0 0 100 15.894" enable-background="new 0 0 100 15.894" xml:space="preserve">
<g>
	<linearGradient id="SVGID_1_" gradientUnits="userSpaceOnUse" x1="7.8375" y1="-1.5411" x2="7.8375" y2="14.2729">
		<stop  offset="0" style="stop-color:#FFFFCA"/>
		<stop  offset="0.3363" style="stop-color:#EECCAA"/>
		<stop  offset="1" style="stop-color:#C48866"/>
	</linearGradient>
	<path fill="url(#SVGID_1_)" d="M9.065,9.259c1.774,0.146,2.139,0.462,2.139,2.309v1.725c0,1.069-0.486,1.555-1.58,1.555
		c-2.819,0-6.076-3.281-6.076-8.263c0-3.329,1.434-5.517,3.937-5.517c2.187,0,3.111,1.653,3.305,3.232
		c0.121,0.948,0.656,1.701,1.798,1.701c1.239,0,1.823-0.899,1.823-1.896c0-1.92-2.187-3.937-6.027-3.937C3.791,0.17,0,3.062,0,8.068
		c0,5.006,3.767,7.825,8.02,7.825c1.944,0,2.868-0.583,4.229-0.583c0.68,0,1.118,0.146,1.555,0.34
		c0.243,0.121,0.437,0.049,0.413-0.219c-0.073-0.632-0.073-1.434-0.073-2.041v-1.823c0-1.847,0.267-2.139,1.531-2.309V8.676
		L9.065,8.7V9.259z"/>
	<linearGradient id="SVGID_2_" gradientUnits="userSpaceOnUse" x1="32.76" y1="-1.5411" x2="32.76" y2="14.2729">
		<stop  offset="0" style="stop-color:#FFFFCA"/>
		<stop  offset="0.3363" style="stop-color:#EECCAA"/>
		<stop  offset="1" style="stop-color:#C48866"/>
	</linearGradient>
	<path fill="url(#SVGID_2_)" d="M42.043,0.559h-7.291v0.778c1.094,0.146,1.677,0.535,1.677,1.458v10.62
		c0,0.506-0.176,0.851-0.514,1.084c-0.195,0.126-0.705,0.371-1.714,0.371h-0.263c-0.664,0-1.037-0.15-1.174-0.219
		c-0.72-0.409-1.025-1.196-1.682-2.645L25.858,0.389l-1.823,0.17c0,0.451-0.118,1.277-0.578,2.335l2.987,6.773l0.046,0.102
		c0.17,0.389-0.073,0.607-0.34,0.607h-0.089h-3.873h-2.017l-0.972,2.212c-0.559,1.264-1.069,1.993-2.43,2.284v0.778h5.395v-0.778
		c-1.555-0.243-2.139-0.899-1.628-2.09l0.267-0.608c0.267-0.632,0.729-0.753,1.385-0.753h3.986c0.608,0,1.142,0.097,1.434,0.778
		l0.316,0.729c0.462,1.069,0.462,1.701-0.996,1.944v0.778h5.983h0.506h1.337h0.364h6.538v-0.778c-1.337-0.146-1.92-0.535-1.92-1.458
		v-1.92c0-0.972,0.34-1.385,1.337-1.385h0.972c4.423,0,6.707-1.896,6.707-4.812C48.751,2.333,46.466,0.559,42.043,0.559z
		 M42.043,9.089h-0.972c-0.996,0-1.337-0.413-1.337-1.385V2.916c0-0.923,0.34-1.361,1.312-1.361h0.996
		c2.576,0,3.427,1.58,3.427,3.791C45.47,7.485,44.62,9.089,42.043,9.089z"/>
	<linearGradient id="SVGID_3_" gradientUnits="userSpaceOnUse" x1="57.9862" y1="-1.5411" x2="57.9862" y2="14.2729">
		<stop  offset="0" style="stop-color:#FFFFCA"/>
		<stop  offset="0.3363" style="stop-color:#EECCAA"/>
		<stop  offset="1" style="stop-color:#C48866"/>
	</linearGradient>
	<path fill="url(#SVGID_3_)" d="M61.097,1.337c1.094,0.146,1.774,0.535,1.774,1.458V9.04c0,3.815-1.822,5.274-4.058,5.274
		c-2.333,0-3.864-1.604-3.864-5.419v-6.1c0-0.923,0.583-1.312,1.677-1.458V0.559h-6.659v0.778c1.094,0.146,1.677,0.535,1.677,1.458
		v6.44c0,4.642,2.722,6.659,6.44,6.659c4.058,0,6.148-2.455,6.148-6.416V2.795c0-0.923,0.68-1.312,1.774-1.458V0.559h-4.909V1.337z"
		/>
	<linearGradient id="SVGID_4_" gradientUnits="userSpaceOnUse" x1="83.6715" y1="-1.5411" x2="83.6715" y2="14.2729">
		<stop  offset="0" style="stop-color:#FFFFCA"/>
		<stop  offset="0.3363" style="stop-color:#EECCAA"/>
		<stop  offset="1" style="stop-color:#C48866"/>
	</linearGradient>
	<path fill="url(#SVGID_4_)" d="M97.667,12.005L92.442,0.389l-1.823,0.17c0,0.455-0.12,1.29-0.589,2.361l1.642,3.724l1.401,3.125
		c0.17,0.389-0.073,0.607-0.34,0.607h-0.111h-3.85h-2.017l-0.972,2.212c-0.559,1.264-1.069,1.993-2.43,2.284v0H82.58v0
		c-1.142,0-1.604-1.482-2.187-3.086c-0.656-1.871-1.482-2.673-2.965-3.086c-0.17-0.049-0.17-0.267,0-0.292
		c2.528-0.365,3.767-1.847,3.767-3.742c0-2.649-2.309-4.107-5.93-4.107h-7.922v0.778c1.094,0.146,1.677,0.535,1.677,1.458v10.62
		c0,0.924-0.583,1.312-1.677,1.458v0.778h6.902v-0.778c-1.337-0.146-1.92-0.535-1.92-1.458v-3.038c0-0.923,0.34-1.337,1.434-1.337
		c1.458,0,2.163,0.656,2.843,2.479c1.118,2.989,1.871,4.131,4.666,4.131h0.201h1.112h0.773h0.323h5.073v-0.778
		c-1.555-0.243-2.139-0.899-1.628-2.09l0.267-0.608c0.267-0.632,0.729-0.753,1.385-0.753h3.986c0.608,0,1.142,0.097,1.434,0.778
		l0.316,0.729c0.462,1.069,0.462,1.701-0.996,1.944v0.778H100v-0.753C98.76,14.606,98.493,13.828,97.667,12.005z M74.731,7.947
		h-1.069c-0.996,0-1.337-0.413-1.337-1.361v-3.67c0-0.948,0.34-1.361,1.312-1.361h1.385c2.066,0,2.795,1.531,2.795,3.135
		C77.817,6.246,77.088,7.947,74.731,7.947z"/>
</g>
</svg>
